<svg width="14" height="15" viewBox="0 0 14 15" fill="none" xmlns="http://www.w3.org/2000/svg">
<path opacity="0.55" d="M12.9319 5.38203V10.7753C12.9319 12.6369 11.448 14.1461 9.61751 14.1461H4.31443C2.48392 14.1461 1 12.6369 1 10.7753V5.38203M12.9319 5.38203C12.9319 3.5204 11.448 2.01125 9.61751 2.01125H4.31443C2.48392 2.01125 1 3.5204 1 5.38203M12.9319 5.38203H1M9.94895 1V3.02247M3.98298 1V3.02247M3.3201 8.07866H3.98298M6.63452 8.07866H7.29741M9.94895 8.07866H10.6118M3.3201 10.7753H3.98298M6.63452 10.7753H7.29741M9.94895 10.7753H10.6118" stroke="white" stroke-width="1.3" stroke-linecap="round" stroke-linejoin="round"/>
</svg>
