<svg width="189" height="29" viewBox="0 0 189 29" fill="none" xmlns="http://www.w3.org/2000/svg">
<path d="M6.65402 23V16.708L7.46802 18.864L0.692017 7.6H4.47602L9.66802 16.246H7.49002L12.704 7.6H16.202L9.42602 18.864L10.218 16.708V23H6.65402Z" fill="black"/>
<path d="M24.3204 23.264C22.135 23.264 20.4264 22.6553 19.1944 21.438C17.9624 20.2207 17.3464 18.4827 17.3464 16.224V7.6H20.9104V16.092C20.9104 17.5587 21.211 18.6147 21.8124 19.26C22.4137 19.9053 23.257 20.228 24.3424 20.228C25.4277 20.228 26.271 19.9053 26.8724 19.26C27.4737 18.6147 27.7744 17.5587 27.7744 16.092V7.6H31.2944V16.224C31.2944 18.4827 30.6784 20.2207 29.4464 21.438C28.2144 22.6553 26.5057 23.264 24.3204 23.264Z" fill="black"/>
<path d="M34.8162 23V7.6H41.4823C42.8609 7.6 44.0489 7.82733 45.0463 8.282C46.0436 8.722 46.8136 9.36 47.3563 10.196C47.8989 11.032 48.1703 12.0293 48.1703 13.188C48.1703 14.332 47.8989 15.322 47.3563 16.158C46.8136 16.9793 46.0436 17.61 45.0463 18.05C44.0489 18.49 42.8609 18.71 41.4823 18.71H36.7962L38.3803 17.148V23H34.8162ZM44.6063 23L40.7563 17.412H44.5623L48.4563 23H44.6063ZM38.3803 17.544L36.7962 15.872H41.2843C42.3843 15.872 43.2056 15.6373 43.7483 15.168C44.2909 14.684 44.5623 14.024 44.5623 13.188C44.5623 12.3373 44.2909 11.6773 43.7483 11.208C43.2056 10.7387 42.3843 10.504 41.2843 10.504H36.7962L38.3803 8.81V17.544Z" fill="black"/>
<path d="M48.97 23L55.834 7.6H59.354L66.24 23H62.5L56.868 9.404H58.276L52.622 23H48.97ZM52.402 19.7L53.348 16.994H61.268L62.236 19.7H52.402Z" fill="black"/>
<path d="M67.8377 23V7.6H74.8337C76.5057 7.6 77.9797 7.92266 79.2557 8.568C80.5317 9.19866 81.5291 10.086 82.2477 11.23C82.9664 12.374 83.3257 13.7307 83.3257 15.3C83.3257 16.8547 82.9664 18.2113 82.2477 19.37C81.5291 20.514 80.5317 21.4087 79.2557 22.054C77.9797 22.6847 76.5057 23 74.8337 23H67.8377ZM71.4017 20.074H74.6577C75.6844 20.074 76.5717 19.8833 77.3197 19.502C78.0824 19.106 78.6691 18.5487 79.0797 17.83C79.5051 17.1113 79.7177 16.268 79.7177 15.3C79.7177 14.3173 79.5051 13.474 79.0797 12.77C78.6691 12.0513 78.0824 11.5013 77.3197 11.12C76.5717 10.724 75.6844 10.526 74.6577 10.526H71.4017V20.074Z" fill="black"/>
<path d="M86.0135 23V7.6H92.6795C94.0582 7.6 95.2462 7.82733 96.2435 8.282C97.2409 8.722 98.0109 9.36 98.5535 10.196C99.0962 11.032 99.3675 12.0293 99.3675 13.188C99.3675 14.332 99.0962 15.322 98.5535 16.158C98.0109 16.9793 97.2409 17.61 96.2435 18.05C95.2462 18.49 94.0582 18.71 92.6795 18.71H87.9935L89.5775 17.148V23H86.0135ZM95.8035 23L91.9535 17.412H95.7595L99.6535 23H95.8035ZM89.5775 17.544L87.9935 15.872H92.4815C93.5815 15.872 94.4029 15.6373 94.9455 15.168C95.4882 14.684 95.7595 14.024 95.7595 13.188C95.7595 12.3373 95.4882 11.6773 94.9455 11.208C94.4029 10.7387 93.5815 10.504 92.4815 10.504H87.9935L89.5775 8.81V17.544Z" fill="black"/>
<path d="M105.469 13.804H112.883V16.576H105.469V13.804ZM105.733 20.14H114.115V23H102.191V7.6H113.829V10.46H105.733V20.14Z" fill="black"/>
<path d="M122.011 23.264C120.779 23.264 119.598 23.1027 118.469 22.78C117.34 22.4427 116.43 22.01 115.741 21.482L116.951 18.798C117.611 19.2673 118.388 19.656 119.283 19.964C120.192 20.2573 121.109 20.404 122.033 20.404C122.737 20.404 123.302 20.338 123.727 20.206C124.167 20.0593 124.49 19.8613 124.695 19.612C124.9 19.3627 125.003 19.0767 125.003 18.754C125.003 18.3433 124.842 18.0207 124.519 17.786C124.196 17.5367 123.771 17.3387 123.243 17.192C122.715 17.0307 122.128 16.884 121.483 16.752C120.852 16.6053 120.214 16.4293 119.569 16.224C118.938 16.0187 118.359 15.7547 117.831 15.432C117.303 15.1093 116.87 14.684 116.533 14.156C116.21 13.628 116.049 12.9533 116.049 12.132C116.049 11.252 116.284 10.4527 116.753 9.734C117.237 9.00066 117.956 8.42133 118.909 7.996C119.877 7.556 121.087 7.336 122.539 7.336C123.507 7.336 124.46 7.45333 125.399 7.688C126.338 7.908 127.166 8.24533 127.885 8.7L126.785 11.406C126.066 10.9953 125.348 10.6947 124.629 10.504C123.91 10.2987 123.206 10.196 122.517 10.196C121.828 10.196 121.263 10.2767 120.823 10.438C120.383 10.5993 120.068 10.812 119.877 11.076C119.686 11.3253 119.591 11.6187 119.591 11.956C119.591 12.352 119.752 12.6747 120.075 12.924C120.398 13.1587 120.823 13.3493 121.351 13.496C121.879 13.6427 122.458 13.7893 123.089 13.936C123.734 14.0827 124.372 14.2513 125.003 14.442C125.648 14.6327 126.235 14.8893 126.763 15.212C127.291 15.5347 127.716 15.96 128.039 16.488C128.376 17.016 128.545 17.6833 128.545 18.49C128.545 19.3553 128.303 20.1473 127.819 20.866C127.335 21.5847 126.609 22.164 125.641 22.604C124.688 23.044 123.478 23.264 122.011 23.264Z" fill="black"/>
<path d="M132.466 23.176C131.879 23.176 131.373 22.978 130.948 22.582C130.537 22.1713 130.332 21.6507 130.332 21.02C130.332 20.3893 130.537 19.8833 130.948 19.502C131.373 19.106 131.879 18.908 132.466 18.908C133.067 18.908 133.573 19.106 133.984 19.502C134.395 19.8833 134.6 20.3893 134.6 21.02C134.6 21.6507 134.395 22.1713 133.984 22.582C133.573 22.978 133.067 23.176 132.466 23.176Z" fill="black"/>
<path d="M141 0H189V29H141V0Z" fill="#E7B500"/>
<path d="M152.783 21V8.4H158.237C159.365 8.4 160.337 8.586 161.153 8.958C161.969 9.318 162.599 9.84 163.043 10.524C163.487 11.208 163.709 12.024 163.709 12.972C163.709 13.908 163.487 14.718 163.043 15.402C162.599 16.074 161.969 16.59 161.153 16.95C160.337 17.31 159.365 17.49 158.237 17.49H154.403L155.699 16.212V21H152.783ZM160.793 21L157.643 16.428H160.757L163.943 21H160.793ZM155.699 16.536L154.403 15.168H158.075C158.975 15.168 159.647 14.976 160.091 14.592C160.535 14.196 160.757 13.656 160.757 12.972C160.757 12.276 160.535 11.736 160.091 11.352C159.647 10.968 158.975 10.776 158.075 10.776H154.403L155.699 9.39V16.536Z" fill="white"/>
<path d="M171.617 21.216C169.829 21.216 168.431 20.718 167.423 19.722C166.415 18.726 165.911 17.304 165.911 15.456V8.4H168.827V15.348C168.827 16.548 169.073 17.412 169.565 17.94C170.057 18.468 170.747 18.732 171.635 18.732C172.523 18.732 173.213 18.468 173.705 17.94C174.197 17.412 174.443 16.548 174.443 15.348V8.4H177.323V15.456C177.323 17.304 176.819 18.726 175.811 19.722C174.803 20.718 173.405 21.216 171.617 21.216Z" fill="white"/>
</svg>
