<svg width="34" height="34" viewBox="0 0 34 34" fill="none"
    xmlns="http://www.w3.org/2000/svg">
    <rect width="34" height="34" fill="#F3F3F3"/>
    <path d="M21.8007 22.5255C20.6225 23.7091 17.5928 22.6101 14.9838 19.9892C12.459 17.453 11.2808 14.3249 12.459 13.1413L13.2165 12.3804C13.7214 11.8732 14.6472 11.8732 15.2363 12.3804L16.4145 13.564C17.0878 14.2404 17.0878 15.1703 16.4987 15.6776L16.3304 15.8467C16.0779 16.1848 16.0779 16.6076 16.3304 16.9457C16.5828 17.2839 16.8353 17.6221 17.172 17.8757C17.5086 18.2139 17.7611 18.4675 18.0977 18.7211C18.4344 18.9747 18.8552 18.9747 19.1918 18.6366L19.3601 18.4675C19.8651 17.9602 20.7908 17.9602 21.3799 18.4675L22.5582 19.6511C23.1473 20.2429 23.1473 21.0883 22.5582 21.6801L21.8007 22.5255Z" stroke="black"/>
</svg>
